<svg width="135" height="29" viewBox="0 0 135 29" fill="none" xmlns="http://www.w3.org/2000/svg">
<path d="M0 15.3174V13.0573C0 12.4161 0.0881599 11.7509 0.26448 11.0616C0.456829 10.3724 0.745352 9.70719 1.13005 9.06603C1.51475 8.42487 2.00363 7.83981 2.59671 7.31085C3.20581 6.76586 3.91911 6.33307 4.73659 6.01249C5.02511 5.90029 5.37775 5.7961 5.79451 5.69993C6.21127 5.60375 6.60398 5.55566 6.97265 5.55566H11.7814C12.134 5.55566 12.5187 5.61177 12.9355 5.72397C13.3522 5.82014 13.6968 5.92433 13.9693 6.03654C14.7387 6.34109 15.42 6.76586 16.013 7.31085C16.6061 7.85584 17.103 8.45693 17.5037 9.11412C17.9205 9.75528 18.2331 10.4205 18.4414 11.1097C18.6659 11.799 18.7781 12.4482 18.7781 13.0573V15.3174C18.7781 15.7502 18.7139 16.239 18.5857 16.784C18.4575 17.329 18.2651 17.882 18.0087 18.443C17.7522 18.988 17.4316 19.525 17.0469 20.054C16.6622 20.5669 16.2134 21.0317 15.7005 21.4485C15.1875 21.8492 14.6025 22.1778 13.9453 22.4343C13.3041 22.6747 12.5908 22.7949 11.8054 22.7949H6.9486C5.92274 22.7949 4.98504 22.5866 4.1355 22.1698C3.28596 21.753 2.54862 21.2 1.92349 20.5108C1.31438 19.8215 0.841526 19.0281 0.504916 18.1305C0.168305 17.2328 0 16.2951 0 15.3174ZM8.271 19.3086H10.459C11.1642 19.3086 11.7814 19.2525 12.3103 19.1403C12.8393 19.0121 13.2881 18.7957 13.6568 18.4911C14.0254 18.1866 14.2979 17.7778 14.4743 17.2649C14.6666 16.752 14.7628 16.1028 14.7628 15.3174V13.0573C14.7628 12.2558 14.6666 11.5986 14.4743 11.0857C14.2979 10.5728 14.0254 10.164 13.6568 9.85947C13.3041 9.55492 12.8553 9.34654 12.3103 9.23434C11.7814 9.1061 11.1642 9.04199 10.459 9.04199H8.271C7.58175 9.04199 6.96463 9.1061 6.41964 9.23434C5.89068 9.34654 5.44187 9.55492 5.0732 9.85947C4.72056 10.164 4.44807 10.5808 4.25572 11.1097C4.0794 11.6227 3.99124 12.2718 3.99124 13.0573V15.3174C3.99124 16.1028 4.0794 16.752 4.25572 17.2649C4.44807 17.7778 4.72056 18.1866 5.0732 18.4911C5.44187 18.7957 5.89068 19.0121 6.41964 19.1403C6.96463 19.2525 7.58175 19.3086 8.271 19.3086Z" fill="url(#paint0_linear_2088_5713)"/>
<path d="M20.6039 5.74801H25.7732L35.1503 16.2791V5.74801H39.0453V22.6026H34.8858L24.4989 10.9655V22.6026H20.6039V5.74801Z" fill="url(#paint1_linear_2088_5713)"/>
<path d="M41.4777 5.74801H56.3847V9.04199H45.3727V12.5043H56.3847V15.8463H45.3727V19.3086H56.3847V22.6026H41.4777V5.74801Z" fill="url(#paint2_linear_2088_5713)"/>
<path d="M58.5085 5.74801H69.4243C70.5303 5.74801 71.5401 5.97242 72.4538 6.42123C73.3674 6.87005 74.1528 7.47114 74.81 8.2245C75.4833 8.96184 75.9962 9.8194 76.3488 10.7972C76.7175 11.7589 76.9018 12.7607 76.9018 13.8026V14.548C76.9018 15.5899 76.7175 16.5997 76.3488 17.5775C75.9802 18.5392 75.4672 19.3968 74.81 20.1501C74.1528 20.8875 73.3674 21.4805 72.4538 21.9294C71.5401 22.3782 70.5303 22.6026 69.4243 22.6026H58.5085V5.74801ZM67.7412 19.3086C69.1678 19.3086 70.3059 19.0682 71.1554 18.5873C72.0049 18.0904 72.566 17.313 72.8385 16.2551C72.9186 15.9185 72.9667 15.5818 72.9827 15.2452C73.0148 14.8926 73.0308 14.54 73.0308 14.1873C73.0308 13.8187 73.0148 13.458 72.9827 13.1054C72.9667 12.7527 72.9186 12.4081 72.8385 12.0715C72.566 11.0296 72.0049 10.2682 71.1554 9.78734C70.3059 9.29044 69.1678 9.04199 67.7412 9.04199H62.4035V19.3086H67.7412Z" fill="url(#paint3_linear_2088_5713)"/>
<path d="M78.6779 5.74801H93.5849V9.04199H82.5729V12.5043H93.5849V15.8463H82.5729V19.3086H93.5849V22.6026H78.6779V5.74801Z" fill="url(#paint4_linear_2088_5713)"/>
<path d="M106.08 28.1254L113.165 21.06L120.23 28.1254H134.813L113.165 6.73242L91.752 28.1254H106.08Z" fill="url(#paint5_linear_2088_5713)"/>
<path d="M113.244 6.73242L120.31 28.145H134.932L113.244 6.73242Z" fill="url(#paint6_linear_2088_5713)"/>
<path d="M106.177 28.145L113.243 6.73242L91.8496 28.145H106.177Z" fill="url(#paint7_linear_2088_5713)"/>
<path d="M120.583 0.0185547L113.518 7.10361L106.453 0.0185547H91.8691L113.518 21.4312L134.931 0.0185547H120.583Z" fill="url(#paint8_linear_2088_5713)"/>
<path d="M113.42 21.4323L106.355 0H91.752L113.42 21.4323Z" fill="url(#paint9_linear_2088_5713)"/>
<path d="M120.485 0L113.42 21.4323L134.852 0H120.485Z" fill="url(#paint10_linear_2088_5713)"/>
<defs>
<linearGradient id="paint0_linear_2088_5713" x1="0" y1="14.1753" x2="93.5849" y2="14.1753" gradientUnits="userSpaceOnUse">
<stop stop-color="#FDFBFB"/>
<stop offset="1" stop-color="#EBEDEE"/>
</linearGradient>
<linearGradient id="paint1_linear_2088_5713" x1="0" y1="14.1753" x2="93.5849" y2="14.1753" gradientUnits="userSpaceOnUse">
<stop stop-color="#FDFBFB"/>
<stop offset="1" stop-color="#EBEDEE"/>
</linearGradient>
<linearGradient id="paint2_linear_2088_5713" x1="0" y1="14.1753" x2="93.5849" y2="14.1753" gradientUnits="userSpaceOnUse">
<stop stop-color="#FDFBFB"/>
<stop offset="1" stop-color="#EBEDEE"/>
</linearGradient>
<linearGradient id="paint3_linear_2088_5713" x1="53.5223" y1="1.64971" x2="70.6886" y2="36.6888" gradientUnits="userSpaceOnUse">
<stop stop-color="#702BFF"/>
<stop offset="0.513112" stop-color="#A33AFF"/>
<stop offset="0.825913" stop-color="#B33DFF"/>
<stop offset="1" stop-color="#D343FF"/>
</linearGradient>
<linearGradient id="paint4_linear_2088_5713" x1="53.5223" y1="1.64971" x2="70.6886" y2="36.6888" gradientUnits="userSpaceOnUse">
<stop stop-color="#702BFF"/>
<stop offset="0.513112" stop-color="#A33AFF"/>
<stop offset="0.825913" stop-color="#B33DFF"/>
<stop offset="1" stop-color="#D343FF"/>
</linearGradient>
<linearGradient id="paint5_linear_2088_5713" x1="113.279" y1="28.1785" x2="113.279" y2="-6.82096" gradientUnits="userSpaceOnUse">
<stop stop-color="#13123F"/>
<stop offset="1" stop-color="#7130E5"/>
</linearGradient>
<linearGradient id="paint6_linear_2088_5713" x1="120.68" y1="15.943" x2="127.062" y2="34.8999" gradientUnits="userSpaceOnUse">
<stop stop-color="#702BFF"/>
<stop offset="0.43" stop-color="#A33AFF"/>
<stop offset="0.6547" stop-color="#B33DFF"/>
<stop offset="1" stop-color="#D343FF"/>
</linearGradient>
<linearGradient id="paint7_linear_2088_5713" x1="109.066" y1="15.3525" x2="96.984" y2="29.4606" gradientUnits="userSpaceOnUse">
<stop stop-color="#702BFF"/>
<stop offset="0.43" stop-color="#A33AFF"/>
<stop offset="0.6547" stop-color="#B33DFF"/>
<stop offset="1" stop-color="#D343FF"/>
</linearGradient>
<linearGradient id="paint8_linear_2088_5713" x1="113.396" y1="17.745" x2="113.396" y2="3.18131" gradientUnits="userSpaceOnUse">
<stop stop-color="#13123F"/>
<stop offset="1" stop-color="#7130E5"/>
</linearGradient>
<linearGradient id="paint9_linear_2088_5713" x1="93.8094" y1="18.9136" x2="114.816" y2="1.71178" gradientUnits="userSpaceOnUse">
<stop stop-color="#571EAB"/>
<stop offset="0.00987452" stop-color="#5A20AF"/>
<stop offset="0.0822791" stop-color="#6A2FCB"/>
<stop offset="0.1609" stop-color="#783AE0"/>
<stop offset="0.2477" stop-color="#8142EF"/>
<stop offset="0.349" stop-color="#8647F8"/>
<stop offset="0.4998" stop-color="#8848FB"/>
<stop offset="1" stop-color="#A97FFB"/>
</linearGradient>
<linearGradient id="paint10_linear_2088_5713" x1="115.455" y1="18.9136" x2="136.415" y2="1.93697" gradientUnits="userSpaceOnUse">
<stop stop-color="#571EAB"/>
<stop offset="0.00987452" stop-color="#5A20AF"/>
<stop offset="0.0822791" stop-color="#6A2FCB"/>
<stop offset="0.1609" stop-color="#783AE0"/>
<stop offset="0.2477" stop-color="#8142EF"/>
<stop offset="0.349" stop-color="#8647F8"/>
<stop offset="0.4998" stop-color="#8848FB"/>
<stop offset="1" stop-color="#A97FFB"/>
</linearGradient>
</defs>
</svg>
